<?xml version="1.0" encoding="utf-8"?>
<!-- Generator: Adobe Illustrator 24.1.2, SVG Export Plug-In . SVG Version: 6.00 Build 0)  -->
<svg version="1.1" id="Layer_1" xmlns="http://www.w3.org/2000/svg" xmlns:xlink="http://www.w3.org/1999/xlink" x="0px" y="0px"
	 viewBox="0 0 123.71 123.77" style="enable-background:new 0 0 123.71 123.77;" xml:space="preserve">
<style type="text/css">
	.st0{fill:#12173E;}
	.st1{fill:#FFFFFF;}
	.st2{fill:#FAFAFA;}
	.st3{fill:#73A9DA;}
</style>
<g>
	<g>
		<path class="st0" d="M111.53,121.17H12.2c-5.32,0-9.63-4.31-9.63-9.63V12.22c0-5.32,4.31-9.63,9.63-9.63h99.33
			c5.32,0,9.63,4.31,9.63,9.63v99.33C121.15,116.86,116.84,121.17,111.53,121.17z"/>
		<path class="st1" d="M111.33,123.72H12.4c-6.83,0-12.38-5.55-12.38-12.38V12.42c0-6.83,5.55-12.38,12.38-12.38h98.93
			c6.83,0,12.38,5.55,12.38,12.38v98.93C123.71,118.17,118.15,123.72,111.33,123.72z M12.4,5.14c-4.01,0-7.27,3.26-7.27,7.27v98.93
			c0,4.01,3.26,7.27,7.27,7.27h98.93c4.01,0,7.27-3.26,7.27-7.27V12.42c0-4.01-3.26-7.27-7.27-7.27H12.4z"/>
	</g>
	<g>
		<g>
			<path class="st2" d="M63.9,60.64c1.51,0.65,2.7,1.69,3.48,3.2c1.35,2.63,0.68,6.38-1.46,8.37c-1.56,1.45-3.47,2.19-5.51,2.26
				c-4.44,0.17-8.89,0.15-13.34,0.18c-1.08,0.01-1.93-0.88-2.01-1.97c-0.02-0.3-0.02-0.6-0.02-0.89c0-7.46,0-14.92,0-22.37
				c0-1.82,0.77-2.6,2.58-2.6c3.35,0,6.7-0.03,10.05,0.01c2.14,0.03,4.22,0.39,6.17,1.37c4.26,2.16,4.7,8.23,1.95,10.87
				C65.21,59.62,64.56,60.1,63.9,60.64z M51.67,68.99c2.36,0,4.7,0.07,7.02-0.03c1.43-0.06,2.31-0.93,2.5-2.1
				c0.28-1.74-0.5-3.04-2.25-3.21c-2.41-0.23-4.84-0.18-7.28-0.26C51.67,65.36,51.67,67.21,51.67,68.99z M51.66,57.81
				c2.16,0,4.29,0.08,6.41-0.04c1.04-0.06,2-0.68,2.4-1.71c0.62-1.63-0.23-3.22-2-3.42c-2.24-0.26-4.51-0.2-6.8-0.28
				C51.66,54.25,51.66,56.03,51.66,57.81z"/>
		</g>
		<g>
			<path class="st3" d="M104.46,46.81c-0.98,1.52-1.88,2.94-2.8,4.35c-0.43,0.67-0.87,1.35-1.32,2.01c-0.49,0.71-1.04,1.39-1.5,2.11
				c-1.02,1.62-2.02,3.25-2.98,4.9c-0.13,0.23-0.08,0.69,0.07,0.94c1.38,2.24,2.8,4.46,4.21,6.69c1.42,2.24,2.86,4.47,4.34,6.79
				c-0.27,0.02-0.45,0.05-0.64,0.05c-1.61,0-3.21-0.02-4.82,0.01c-1.37,0.02-2.37-0.56-3.08-1.72c-1.11-1.82-2.22-3.64-3.34-5.45
				c-0.35-0.58-0.71-1.15-1.11-1.82c-0.53,0.81-1.04,1.55-1.51,2.32c-1.04,1.7-2.04,3.42-3.08,5.12c-0.62,1.01-1.54,1.54-2.74,1.54
				c-1.83,0-3.67,0-5.59,0c0.17-0.42,0.27-0.79,0.47-1.1c1.02-1.56,2.08-3.1,3.1-4.66c1.56-2.38,3.11-4.78,4.66-7.17
				c0.45-0.69,0.54-1.36,0.05-2.1c-2.52-3.88-5.02-7.78-7.53-11.67c-0.23-0.35-0.48-0.68-0.8-1.14c2.15,0,4.08-0.02,6.01,0.01
				c0.97,0.02,1.83,0.43,2.35,1.24c1.05,1.65,2,3.37,3.01,5.04c0.51,0.84,1.09,1.64,1.68,2.53c0.79-1.3,1.57-2.57,2.34-3.85
				c0.7-1.15,1.39-2.31,2.12-3.45c0.65-1.03,1.61-1.52,2.83-1.52C100.69,46.81,102.52,46.81,104.46,46.81z"/>
		</g>
		<g>
			<path class="st2" d="M24.94,63.89c0.43,3.35,3.07,4.62,6.05,4.36c1.97-0.17,3.63-0.97,4.3-2.96c0.34-1,0.47-2.1,0.48-3.16
				c0.05-4.2,0.02-8.4,0.02-12.6c0-0.25,0-0.51,0.02-0.76c0.11-1.17,0.85-1.92,2.02-1.94c1.49-0.03,2.98-0.01,4.52-0.01
				c0.02,0.17,0.05,0.32,0.05,0.47c0,5.21,0.01,10.42-0.01,15.63c-0.01,2.17-0.32,4.3-1.36,6.24c-1.5,2.81-3.89,4.47-6.96,5.1
				c-3.75,0.76-7.43,0.66-10.87-1.28c-2.03-1.15-3.5-2.89-4.24-5.05c-0.51-1.5-0.59-3.18-0.7-4.79c-0.1-1.55,0.02-3.12,0.03-4.68
				c0.01-2.96,0.08-5.91-0.02-8.87c-0.07-2.16,1.11-2.96,2.87-2.78c0.11,0.01,0.23,0.01,0.44,0.02c0,0.57,0,1.13,0,1.7
				c0,0.55,0,1.1,0,1.69c1.12,0,2.19,0,3.39,0c0,1.2,0,2.36,0,3.52c-0.01,1.08-0.01,2.16-0.02,3.23c-1.11,0-2.22,0-3.32,0
				c0,1.22,0,2.35,0,3.48c0,0.89,0.02,1.78-0.02,2.67c-0.03,0.56,0.14,0.78,0.73,0.75C23.2,63.84,24.07,63.88,24.94,63.89z"/>
		</g>
		<g>
			<path class="st2" d="M76.6,46.81c0,0.5,0,0.95,0,1.41c0,7.96,0,15.93,0,23.89c0,1.74-0.82,2.55-2.57,2.55c-1.33,0-2.65,0-4.04,0
				c0-0.28,0-0.5,0-0.72c0-8.15,0-16.29,0-24.44c0-0.38,0.03-0.78,0.13-1.15c0.27-0.98,0.99-1.52,2.02-1.54
				C73.6,46.8,75.04,46.81,76.6,46.81z"/>
		</g>
		<g>
			<path class="st2" d="M76.94,79.72c-0.57,1.87-1.12,3.68-1.68,5.51c-0.51,0-0.98,0-1.49,0c-0.73-2.41-1.46-4.81-2.2-7.24
				c0.41,0,0.82,0,1.26,0c0.54,1.87,1.09,3.75,1.63,5.62c0.04,0.01,0.09,0.01,0.13,0.02c0.24-0.79,0.49-1.57,0.73-2.36
				c0.26-0.87,0.55-1.74,0.76-2.63c0.14-0.6,0.43-0.85,1.04-0.74c0.15,0.03,0.32,0,0.55,0c0.58,1.91,1.16,3.82,1.79,5.93
				c0.6-2.07,1.16-3.98,1.72-5.89c0.41,0,0.79,0,1.21,0c-0.7,2.34-1.38,4.65-2.08,6.95c-0.21,0.7-0.81,0.28-1.23,0.35
				c-0.55,0.09-0.54-0.44-0.64-0.75c-0.46-1.52-0.89-3.05-1.33-4.58C77.09,79.85,77.02,79.81,76.94,79.72z"/>
		</g>
		<g>
			<path class="st2" d="M28.29,57.01c1.12,0,2.24,0,3.38,0c0,1.16,0,2.25,0,3.4c-1.12,0-2.21,0-3.47,0c0,1.16,0,2.27,0,3.38
				c-1.02,0-2.04,0-3.07,0c0-2.33,0-4.53,0-6.78C26.23,57.01,27.26,57.01,28.29,57.01z"/>
		</g>
		<g>
			<path class="st2" d="M57.68,85.21c-0.7,0.19-1.14-0.04-1.56-0.64c-1.08-1.52-2.25-2.98-3.48-4.57c0,1.83,0,3.51,0,5.22
				c-0.43,0-0.8,0-1.2,0c0-2.43,0-4.83,0-7.24c0.68-0.19,1.15-0.05,1.59,0.56c1.08,1.52,2.25,2.98,3.51,4.63c0-1.86,0-3.54,0-5.24
				c0.42,0,0.76,0,1.15,0C57.68,80.34,57.68,82.76,57.68,85.21z"/>
		</g>
		<g>
			<path class="st2" d="M86.53,77.82c2.22-0.01,3.76,1.51,3.78,3.73c0.02,2.2-1.62,3.85-3.82,3.85c-2.22,0-3.81-1.57-3.82-3.79
				C82.66,79.35,84.22,77.82,86.53,77.82z M89.05,81.62c0.02-1.56-1-2.68-2.48-2.7c-1.52-0.03-2.65,1.08-2.66,2.62
				c-0.01,1.56,1.06,2.7,2.56,2.73C87.81,84.29,89.12,83.11,89.05,81.62z"/>
		</g>
		<g>
			<path class="st3" d="M28.29,57.01c-1.03,0-2.06,0-3.16,0c0,2.25,0,4.45,0,6.78c1.03,0,2.05,0,3.07,0
				c-1.09,0.03-2.18,0.07-3.26,0.1c-0.87-0.01-1.73-0.05-2.6-0.02c-0.58,0.02-0.75-0.2-0.73-0.75c0.04-0.89,0.02-1.78,0.02-2.67
				c1.09,0,2.18,0,3.28,0c0.03-0.12,0.05-0.19,0.05-0.25c0-1.08-0.01-2.15-0.01-3.23c0.01-1.08,0.01-2.16,0.02-3.23
				c1.07,0,2.13,0,3.32,0C28.29,54.84,28.29,55.93,28.29,57.01z"/>
		</g>
		<g>
			<path class="st2" d="M92.6,81.99c0,1.22,0,2.2,0,3.22c-0.39,0-0.74,0-1.14,0c0-2.41,0-4.82,0-7.24c1.28,0,2.54-0.08,3.79,0.02
				c1.09,0.09,1.73,0.9,1.75,1.95c0.02,1.06-0.62,1.89-1.67,2.13c-0.2,0.05-0.4,0.07-0.71,0.13c0.79,1.03,1.52,1.99,2.28,2.99
				c-0.89,0.18-1.56,0.12-2.03-0.73c-0.37-0.67-0.9-1.27-1.39-1.87C93.29,82.37,92.98,82.25,92.6,81.99z M92.61,81.13
				c0.79-0.04,1.51-0.04,2.24-0.11c0.62-0.06,0.94-0.43,0.91-1.06c-0.03-0.63-0.46-0.87-1.01-0.9c-0.7-0.03-1.41-0.01-2.14-0.01
				C92.61,79.73,92.61,80.37,92.61,81.13z"/>
		</g>
		<g>
			<path class="st2" d="M59.49,85.22c0-2.45,0-4.85,0-7.28c1.74,0,3.45,0,5.2,0c0,0.36,0,0.69,0,1.08c-1.33,0-2.65,0-4.01,0
				c0,0.67,0,1.27,0,1.96c1.28,0,2.57,0,3.89,0c0,0.39,0,0.7,0,1.1c-1.28,0-2.57,0-3.9,0c0,0.72,0,1.35,0,2.05c1.34,0,2.68,0,4.06,0
				c0,0.39,0,0.72,0,1.09C63,85.22,61.26,85.22,59.49,85.22z"/>
		</g>
		<g>
			<path class="st2" d="M99.5,85.22c-0.46,0-0.82,0-1.21,0c0-2.43,0-4.83,0-7.27c0.38,0,0.74,0,1.16,0c0,0.97,0,1.98,0,3.25
				c0.47-0.27,0.85-0.39,1.08-0.64c0.79-0.85,1.54-1.75,2.31-2.64c0.43,0,0.91,0,1.58,0c-1.14,1.25-2.17,2.38-3.25,3.57
				c1.14,1.23,2.26,2.45,3.41,3.69c-0.98,0.22-1.72,0.07-2.32-0.75c-0.51-0.7-1.15-1.31-1.77-1.92c-0.23-0.23-0.57-0.35-1-0.6
				C99.5,83.13,99.5,84.15,99.5,85.22z"/>
		</g>
		<g>
			<path class="st2" d="M69.05,85.24c-0.44,0-0.78,0-1.22,0c0-0.84,0-1.68,0-2.52c0-0.94-0.04-1.88,0.01-2.82
				c0.03-0.65-0.3-0.83-0.84-0.85c-0.48-0.01-0.95,0-1.48,0c0-0.38,0-0.71,0-1.09c1.93,0,3.86,0,5.82,0c0,0.34,0,0.68,0,1.07
				c-0.75,0-1.5,0-2.29,0C69.05,81.11,69.05,83.14,69.05,85.24z"/>
		</g>
		<g>
			<path class="st2" d="M31.65,50.39c0,1.14,0,2.23,0,3.35c-1.07,0-2.2,0-3.36,0c0-1.1,0-2.21,0-3.35
				C29.37,50.39,30.46,50.39,31.65,50.39z"/>
		</g>
		<g>
			<path class="st2" d="M28.31,47.04c0,1.14,0,2.23,0,3.35c-1.07,0-2.2,0-3.36,0c0-1.1,0-2.21,0-3.35
				C26.04,47.04,27.12,47.04,28.31,47.04z"/>
		</g>
		<g>
			<path class="st0" d="M25.11,56.97c0,1.08,0.01,2.15,0.01,3.23c0,0.06-0.03,0.13-0.06,0.25c-1.15,0-2.29,0-3.44,0
				c0-1.13,0-2.26,0-3.48C22.78,56.97,23.95,56.97,25.11,56.97z"/>
		</g>
		<g>
			<rect x="24.96" y="50.39" class="st0" width="3.35" height="3.35"/>
		</g>
	</g>
</g>
</svg>
